<?xml version="1.0" encoding="utf-8"?>
<!-- Generator: Adobe Illustrator 25.4.1, SVG Export Plug-In . SVG Version: 6.00 Build 0)  -->
<svg version="1.1" xmlns="http://www.w3.org/2000/svg" xmlns:xlink="http://www.w3.org/1999/xlink" x="0px" y="0px"
	 viewBox="0 0 1024 768" style="enable-background:new 0 0 1024 768;" xml:space="preserve">
<style type="text/css">
	.st0{stroke:#000000;stroke-miterlimit:10;}
</style>
<g id="Capa_2">
	
		<image style="overflow:visible;" width="752" height="720" xlink:href="mundo.png"  transform="matrix(0.5413 0 0 0.5413 293.6645 245.3658)">
	</image>
</g>
<g id="Capa_1">
	<g>
		<path class="st0" d="M250.4,243.6c-0.2-1-0.4-2-0.6-3c-0.3-1.5-0.4-3-0.6-4.5c-0.3-2.4,0.5-4.2,2.3-5.8c2.7-2.4,5.8-3.3,9.4-3.1
			c3.4,0.2,6.5,1.3,9.5,2.8c3.7,1.9,7.4,3.7,11.2,5.5c5.3,2.5,10.6,5.1,15.9,7.6c6,2.8,12.1,5.6,18.2,8.3c8,3.6,16.1,7.2,24.2,10.8
			c5,2.2,9.9,4.5,15,6.4c3.7,1.4,7.7,2.1,11.5,3.2c3,0.9,6,1.8,8.8,3c7.3,3.1,8.8,10.7,6.4,16.6c-0.3,0.8-0.9,1.6-1.4,2.4
			c-1.4,2.1-3.5,3-5.9,3.4c-3.8,0.7-7.5,0.4-11.2-0.2c-8.7-1.4-17.1-4-25.4-7.2c-1.9-0.7-3.7-1.5-5.5-2.2c-0.5-0.2-0.8-0.1-1.1,0.4
			c-1.3,2.2-2.5,4.3-3.8,6.5c-1.1,1.8-2.2,3.6-3.3,5.3c-1.4,2.1-2.7,4.3-4.1,6.4c-1.2,1.9-2.4,3.8-3.6,5.7c-1.4,2.2-2.8,4.4-4.1,6.7
			c-1.4,2.4-2.7,4.8-4.1,7.2c-0.3,0.6-0.2,1,0.1,1.5c2,3.8,4.2,7.5,6.1,11.3c3.1,6,6.1,12.1,9.1,18.2c2.4,4.9,1.5,10.6-2.3,14.7
			c-3.5,3.8-9.7,5.4-14.2,3.5c-2-0.8-3.6-2.2-4.8-4c-2.8-4.1-5.3-8.5-7.7-12.9c-2.6-4.8-5.1-9.7-7.6-14.5c-0.2-0.4-0.6-0.6-1-0.8
			c-1.1-0.5-2.4-0.9-3.5-1.5c-1.9-1.1-2.5-2.9-2.5-4.9c0-2.1,0.5-4.2,1.2-6.2c0.2-0.6,0.2-1.2-0.1-1.8
			c-9.3-22.1-17.9-44.5-25.4-67.3C253.5,255.2,251.7,249.5,250.4,243.6 M375.9,278.5c-0.7-0.4-1.5-1-2.5-1.3c-3.2-1.1-6.4-2.1-9.6-3
			c-3.9-1.1-8-1.9-11.8-3.6c-8.1-3.5-16.1-7.1-24.2-10.6c-6.7-3-13.4-6-20.1-9c-7.4-3.4-14.8-6.9-22.2-10.4
			c-5.4-2.6-10.8-5.2-16.2-7.9c-2.6-1.3-5.4-2.4-8.3-2.6c-2.5-0.2-4.8,0.3-6.9,1.8c-1.5,1.2-2.3,2.5-2,4.6c0.5,3.9,1.4,7.8,2.4,11.6
			c3.6,12.7,8,25.1,12.6,37.4c5.2,14.1,10.7,28,16.6,41.8c0.5,1.1,0.4,2.2,0.1,3.4c-0.5,1.7-0.9,3.5-1.1,5.3
			c-0.2,1.2,0.2,2.2,1.3,2.8c0.8,0.4,1.5,0.9,2.3,1.1c1.4,0.4,2.3,1.2,3,2.5c2.4,4.7,4.8,9.3,7.4,13.9c2.4,4.3,5,8.5,7.5,12.7
			c0.9,1.5,2.2,2.6,3.8,3.2c4.5,1.7,10.3-0.4,12.9-5.7c1.4-2.8,1.2-5.7-0.1-8.5c-0.8-1.8-1.7-3.6-2.6-5.3
			c-4.1-7.9-8.2-15.9-12.3-23.8c-0.3-0.6-0.7-1.2-0.8-1.9c-0.1-0.5-0.2-1.2,0-1.6c0.8-1.8,1.8-3.5,2.7-5.2c1.2-2.1,2.4-4.2,3.7-6.3
			c1.4-2.4,2.9-4.7,4.4-7.1c1-1.5,2-3,3-4.6c1.6-2.5,3.2-5,4.7-7.5c1-1.6,2-3.3,3-5c0.8-1.3,1.5-2.6,2.3-3.8c1.1-1.6,2.2-1.9,4-1.2
			c2.6,1,5.2,2.1,7.9,3.1c7.8,2.8,15.7,5.2,23.9,6.4c2.9,0.4,5.9,0.6,8.8,0.1c1.3-0.2,2.6-0.5,3.5-1.5c1.3-1.3,2.1-2.8,2.4-4.5
			C380,284.6,379.3,281.2,375.9,278.5z"/>
		<path class="st0" d="M299.7,302.5c-0.7,1-1.6,1.7-2.8,1.6c-1.2-0.1-2-0.8-2.5-1.9c-2-4.7-4-9.4-6-14.2c-3-7.1-5.9-14.1-8.8-21.2
			c-0.5-1.2-0.9-2.5-0.1-3.7c0.7-1.2,2.2-1.7,3.4-1.2c4.4,2,8.7,4.1,13,6.1c4,1.9,8,3.9,11.9,5.8c1.3,0.7,2.7,1.3,4,2
			c2.1,1.1,2.5,2.8,1.2,4.9c-1.6,2.6-3.3,5.2-4.9,7.9c-2.7,4.4-5.4,8.8-8,13.2C300,302,299.9,302.3,299.7,302.5z M282.2,264.6
			c-0.1,0.1-0.1,0.1-0.2,0.2c5,12.1,10.1,24.2,15.2,36.5c4-8,9.4-15,13.9-22.7C301.3,273.9,291.8,269.3,282.2,264.6z"/>
	</g>
	<g>
		<path class="st0" d="M523.6,177.3c2,1.2,4,2.2,5.8,3.4c6.6,4.6,12.1,10.4,15.5,17.8c1.7,3.7,2.5,7.6,2.2,11.7
			c-0.3,4.2-1.8,7.9-4,11.4c-3.2,5-7.5,8.9-12.1,12.4c-6.8,5.2-14.5,8.7-22.8,11c-4.7,1.3-9.4,2.4-14.1,3.4c-3.1,0.6-6.2,1-9.3,1.4
			c-6.1,0.8-12.3,1.2-18.5,1.4c-6.9,0.2-12.9-4.1-14.8-10.7c-0.2-0.6-0.2-1.3-0.2-2c-0.9-27-1.8-54-2.7-81
			c-0.2-5.8-0.4-11.6-0.7-17.4c-0.2-5.2-0.6-10.5-0.7-15.7c-0.1-1.7,0.1-3.3,0.3-5c0.5-2.8,2.1-4.9,4.5-6.5c2.6-1.7,5.5-2.5,8.4-3.2
			c2.1-0.5,4.2-1,6.4-1.4c2.2-0.4,4.5-0.8,6.7-0.9c4.4-0.3,8.7-0.6,13.1-0.7c5.3-0.2,10.4,0.7,15.4,2.4c9.5,3.1,17.9,8,24.8,15.2
			c4.7,4.9,7.8,10.8,9,17.5c0.6,3.4,0.7,6.9,0.5,10.4c-0.3,5.1-1.5,10-4.1,14.5c-2.2,3.7-5,6.9-8,9.8c-0.2,0.2-0.4,0.4-0.6,0.6
			C523.6,177.2,523.6,177.3,523.6,177.3z M452.4,188.1C452.4,188.1,452.4,188.1,452.4,188.1c0.6,16.6,1.1,33.1,1.6,49.7
			c0,1.6,0.5,3,1.3,4.4c1,1.7,2.3,3.1,3.8,4.2c1.8,1.3,3.7,2.1,6,2c5.1-0.3,10.2-0.5,15.2-1c4.6-0.4,9.2-1.2,13.8-1.9
			c4.8-0.7,9.5-2,14.2-3.4c9.4-2.8,17.9-7.3,25.3-13.9c3.1-2.8,5.9-5.8,8-9.4c2.6-4.4,3.4-9.1,2.6-14.1c-0.5-2.9-1.7-5.6-3.2-8.1
			c-4.5-7.2-10.4-13-18.2-16.6c-2.2-1-2.4-3.6-0.9-5c1.3-1.3,2.6-2.7,3.8-4.1c2.7-3,4.9-6.3,6.3-10.2c1.1-3,1.6-6.2,1.7-9.4
			c0.1-4,0-7.9-1.1-11.7c-1.7-5.8-4.9-10.8-9.2-15c-4.9-4.7-10.5-8.1-16.7-10.9c-6.6-3-13.6-4.5-20.9-4.2c-4.4,0.2-8.8,0.5-13.1,0.8
			c-2.1,0.2-4.2,0.5-6.2,0.9c-1.5,0.3-3,0.7-4.6,1c-2.9,0.5-5.6,1.4-8.1,2.9c-1.7,1.1-3,2.6-3.3,4.6c-0.3,1.6-0.3,3.3-0.3,4.9
			c0.1,3,0.2,6,0.4,8.9c0.3,5.2,0.6,10.3,0.8,15.5C451.6,162.2,451.9,175.1,452.4,188.1z"/>
		<path class="st0" d="M471.5,209.8c-0.1-4.7-0.3-9.3-0.4-14c0-1,0-1.9,0.1-2.9c0-1,1.3-2.1,2.5-2.2c1.3-0.1,2.5-0.1,3.8-0.1
			c6.2-0.1,12.5-0.1,18.7-0.1c6,0,11.5,1.7,16.8,4.4c3.2,1.6,6.1,3.4,8.7,5.9c2.4,2.4,3.9,5.3,4.2,8.6c0.2,1.7-0.4,3.3-1.4,4.7
			c-1.6,2.1-3.9,3.5-6.2,4.7c-4.2,2.1-8.6,3.6-13,4.8c-5.4,1.5-10.9,2.8-16.4,4c-3.5,0.8-7.2,1.2-10.7,1.7c-0.9,0.1-1.7,0.2-2.6,0.2
			c-2,0.1-3.2-1.1-3.3-3.1C471.9,220.8,471.7,215.3,471.5,209.8z M473.8,193.5c0.4,11.1,0.7,22.1,1,33.2c0.1,0,0.2,0,0.2,0
			c2.6-0.3,5.2-0.5,7.7-0.9c3.5-0.6,7-1.3,10.5-2c6.7-1.5,13.2-3.3,19.6-5.7c2.6-1,5.2-2.1,7.4-3.9c2.8-2.1,3.4-4,2-7.6
			c-0.9-2.3-2.6-4.1-4.6-5.6c-3.3-2.6-7.1-4.3-11-5.8c-2.5-0.9-5.1-1.7-7.8-1.8c-1.9-0.1-3.9-0.1-5.8-0.1c-5.5,0-11.1,0-16.6,0.1
			C475.6,193.4,474.8,193.4,473.8,193.5z"/>
		<path class="st0" d="M469.8,150c-0.2-6.2-0.4-12.4-0.6-18.6c0-1.3,0.8-2.4,2.1-2.7c0.5-0.1,1.1-0.2,1.6-0.2c5-0.2,10-0.5,15.1-0.4
			c4.2,0,8.2,1.2,12,3c4.1,2,7.9,4.6,11,8.1c3.5,4.1,4.3,8.8,3.4,13.9c-1.3,6.7-5.4,11.2-11.3,14.2c-3.4,1.7-7,2.7-10.6,3.5
			c-4.3,1-8.6,1.3-12.9,1.3c-2.2,0-4.3-0.2-6.5-0.5c-1.9-0.2-2.5-1-2.5-3C470.2,162.4,470,156.2,469.8,150
			C469.8,150,469.8,150,469.8,150z M471.9,131.3c0,0.5,0,0.8,0,1c0.1,3.1,0.2,6.2,0.3,9.2c0.2,6.2,0.4,12.5,0.5,18.7
			c0.1,2.7,0.2,5.3,0.3,8c0,0.4,0,0.7,0.5,0.7c2.5,0.1,5,0.4,7.5,0.3c2.6-0.1,5.2-0.3,7.8-0.7c4.1-0.6,8.2-1.6,11.9-3.4
			c6.3-3,10.5-7.5,11-14.8c0.2-3.2-0.5-6-2.4-8.5c-2.2-3-5.1-5.1-8.3-7c-4.8-2.8-9.9-4.3-15.5-4.1c-2.5,0.1-5,0.2-7.5,0.2
			C476.2,131.2,474.1,131.2,471.9,131.3z"/>
	</g>
	<g>
		<path class="st0" d="M640.5,250.3c4.1-5,8-9,12.2-12.8c10.3-9.4,21.5-17.2,34-23.4c7.6-3.8,15.6-6.8,24-8.3
			c7.4-1.3,14.8-1.4,22,0.7c5.6,1.7,10.5,4.5,14.8,8.6c5.2,5,9,10.8,11.1,17.7c1,3.4,1.4,6.9,0.3,10.4c-1.6,5.3-5.5,8.4-10.6,10
			c-3.7,1.2-7.5,1.2-11.2-0.5c-3-1.4-5-3.8-6.7-6.6c-0.9-1.7-1.9-3.3-3.2-4.8c-3.5-4.2-8.1-5.4-13.1-3.3c-2.9,1.2-5.6,2.8-8.3,4.6
			c-9.1,5.9-18.1,11.9-27,18c-4.2,2.8-8.1,6-12.1,9.2c-1.9,1.5-3.4,3.3-4.4,5.5c-1.7,3.9-1,7.6,1.6,10.8c1.3,1.6,3.1,3,4.8,4.3
			c6.9,5.2,14.9,8.1,22.8,11.2c5.2,2,10.4,4.1,15.5,6.3c3.3,1.5,6.2,3.6,7.8,7c2.3,5,2,9.9-0.7,14.7c-2.9,4.9-7.6,6.9-13,7.6
			c-5.1,0.6-10.1,0-15-1.1c-8.9-2.1-17.3-5.5-25.3-10c-4.5-2.5-8.7-5.5-12.6-9c-7.1-6.5-13.2-13.7-16.9-22.7
			c-4.4-10.7-3.9-21.2,0.9-31.6C634.7,258,637.6,253.6,640.5,250.3z M643.1,252.4c-2.3,2.7-4.9,6.3-6.9,10.4
			c-3.1,6.2-4.7,12.7-4.1,19.7c0.5,6.2,2.8,11.8,6,17.2c3.5,5.8,8.1,10.7,13.1,15.2c3.8,3.4,7.8,6.4,12.3,8.8
			c7.8,4.2,15.9,7.5,24.5,9.3c5,1.1,10,1.7,15.1,0.6c4.7-1,8.2-3.5,9.6-8.3c1.1-3.8,0.8-7.5-1.8-10.5c-1.3-1.5-3.2-2.8-5-3.7
			c-3.5-1.7-7.1-3.1-10.7-4.5c-9-3.4-18.1-6.7-26.3-12c-2.9-1.9-5.6-4-7.7-6.9c-3.7-5.1-3.9-11.1,0.1-16.7c1.8-2.5,4.2-4.4,6.6-6.2
			c12.1-9.2,24.7-17.6,37.6-25.7c2.7-1.7,5.5-3.5,8.6-4.4c6.6-2,12.2-0.1,16.3,5.2c1.5,2,2.7,4.3,4.1,6.4c1.4,2.1,3.3,3.6,5.8,4.2
			c4.2,1,8.1-0.1,11.5-2.6c2.8-2.1,4.5-5,4.3-8.6c-0.1-1.6-0.2-3.2-0.6-4.7c-1.7-6.3-5.1-11.7-9.6-16.3c-3.9-4-8.5-6.7-13.9-8.3
			c-7.9-2.3-15.8-1.9-23.7-0.1c-7.5,1.7-14.6,4.6-21.4,8.1c-11.2,5.7-21.4,12.8-30.7,21.2C651.7,243,647.5,247.1,643.1,252.4z"/>
	</g>
</g>
</svg>
